<svg xmlns="http://www.w3.org/2000/svg" xmlns:xlink="http://www.w3.org/1999/xlink" width="300" zoomAndPan="magnify" viewBox="0 0 224.87999 149.999998" height="200" preserveAspectRatio="xMidYMid meet" version="1.0"><defs><clipPath id="c1093d9019"><path d="M 0 0.0390625 L 224.761719 0.0390625 L 224.761719 149.960938 L 0 149.960938 Z M 0 0.0390625 " clip-rule="nonzero"/></clipPath><clipPath id="b25719fce4"><path d="M 169 17.636719 L 173 17.636719 L 173 25 L 169 25 Z M 169 17.636719 " clip-rule="nonzero"/></clipPath><clipPath id="7c9617cb48"><path d="M 24.0625 67 L 44 67 L 44 79 L 24.0625 79 Z M 24.0625 67 " clip-rule="nonzero"/></clipPath></defs><g clip-path="url(#c1093d9019)"><path fill="#ffffff" d="M 0 0.0390625 L 224.878906 0.0390625 L 224.878906 149.960938 L 0 149.960938 Z M 0 0.0390625 " fill-opacity="1" fill-rule="nonzero"/><path fill="#ffffff" d="M 0 0.0390625 L 224.878906 0.0390625 L 224.878906 149.960938 L 0 149.960938 Z M 0 0.0390625 " fill-opacity="1" fill-rule="nonzero"/></g><path fill="#f9a979" d="M 161.242188 31.023438 C 160.722656 27.785156 161.054688 26.613281 164.125 23.992188 C 169.230469 19.636719 173.53125 20.121094 177.308594 25.460938 C 180.257812 29.632812 185.503906 34.71875 182.90625 39.984375 C 182.179688 41.457031 181.414062 43.59375 178.65625 44.429688 C 178.65625 44.429688 175.523438 45.296875 173.148438 41.375 C 172.425781 40.179688 171.246094 38.867188 169.9375 37.53125 C 166.957031 34.484375 161.605469 33.273438 161.242188 31.023438 " fill-opacity="1" fill-rule="nonzero"/><path fill="#f9a979" d="M 164.175781 28.839844 C 165.410156 29.355469 166.078125 30.839844 165.671875 32.152344 C 165.265625 33.464844 164.832031 33.023438 163.601562 32.503906 L 158.574219 32.078125 C 157.34375 31.5625 156.671875 30.078125 157.078125 28.761719 C 157.488281 27.449219 158.8125 26.800781 160.046875 27.320312 L 164.175781 28.839844 " fill-opacity="1" fill-rule="nonzero"/><path fill="#f9a979" d="M 165.453125 25.996094 C 166.339844 26.714844 166.570312 28.046875 165.960938 28.976562 C 165.359375 29.90625 165.097656 29.449219 164.210938 28.730469 L 160.238281 27.125 C 159.351562 26.410156 159.121094 25.074219 159.726562 24.144531 C 160.328125 23.214844 161.539062 23.042969 162.429688 23.761719 L 165.453125 25.996094 " fill-opacity="1" fill-rule="nonzero"/><path fill="#f9a979" d="M 167.992188 24.554688 C 168.597656 25.5625 168.371094 26.875 167.484375 27.480469 C 166.597656 28.085938 166.507812 27.558594 165.902344 26.550781 L 162.664062 23.492188 C 162.0625 22.484375 162.289062 21.171875 163.175781 20.570312 C 164.0625 19.964844 165.265625 20.289062 165.871094 21.300781 L 167.992188 24.554688 " fill-opacity="1" fill-rule="nonzero"/><path fill="#f9a979" d="M 170.273438 23.113281 C 170.585938 24.171875 170.074219 25.261719 169.132812 25.546875 C 168.191406 25.835938 168.226562 25.351562 167.917969 24.292969 L 165.691406 20.699219 C 165.378906 19.644531 165.890625 18.554688 166.832031 18.265625 C 167.777344 17.980469 168.792969 18.605469 169.101562 19.660156 L 170.273438 23.113281 " fill-opacity="1" fill-rule="nonzero"/><g clip-path="url(#b25719fce4)"><path fill="#f9a979" d="M 172.59375 23.367188 C 172.496094 24.398438 171.660156 25.109375 170.71875 24.953125 C 169.777344 24.796875 169.984375 24.398438 170.082031 23.367188 L 169.375 19.367188 C 169.46875 18.335938 170.308594 17.625 171.253906 17.78125 C 172.191406 17.941406 172.875 18.902344 172.777344 19.933594 L 172.59375 23.367188 " fill-opacity="1" fill-rule="nonzero"/></g><path fill="#f9a979" d="M 167.957031 30.265625 C 163.765625 33.601562 158.066406 40.300781 154.636719 44.519531 C 154.636719 44.519531 144.699219 54.226562 145.914062 64.890625 C 146.796875 72.660156 147.246094 79.148438 148.121094 84.273438 C 148.449219 86.1875 151.847656 93.070312 158.539062 92.558594 C 166.714844 91.929688 169.785156 89.234375 172.664062 84.429688 C 177.417969 76.496094 168.367188 63.871094 168.367188 63.871094 C 168.367188 63.871094 174.769531 44.046875 177.398438 39.328125 L 167.957031 30.265625 " fill-opacity="1" fill-rule="nonzero"/><path fill="#d3d2d2" d="M 158.339844 94.167969 C 153.859375 94.167969 151.152344 90.640625 149.867188 87.976562 C 151.070312 89.707031 152.890625 91.472656 155.34375 92.21875 C 155.347656 92.21875 155.351562 92.222656 155.351562 92.222656 C 155.355469 92.222656 155.355469 92.222656 155.355469 92.222656 C 155.363281 92.226562 155.367188 92.226562 155.371094 92.226562 C 156.128906 92.453125 156.949219 92.585938 157.832031 92.585938 C 157.949219 92.585938 158.066406 92.582031 158.1875 92.578125 C 158.253906 92.574219 158.324219 92.570312 158.390625 92.566406 C 158.441406 92.566406 158.488281 92.5625 158.539062 92.558594 C 166.714844 91.929688 169.785156 89.234375 172.664062 84.429688 C 173.914062 82.34375 174.210938 79.925781 173.964844 77.5 C 173.964844 77.5 173.964844 77.5 173.960938 77.496094 C 173.960938 77.488281 173.960938 77.484375 173.960938 77.480469 C 173.960938 77.476562 173.960938 77.476562 173.960938 77.472656 C 173.960938 77.46875 173.960938 77.464844 173.960938 77.460938 C 173.960938 77.460938 173.960938 77.457031 173.960938 77.457031 C 173.960938 77.453125 173.960938 77.449219 173.960938 77.445312 C 173.957031 77.4375 173.957031 77.433594 173.957031 77.429688 C 173.957031 77.425781 173.957031 77.425781 173.957031 77.425781 C 173.851562 76.425781 173.652344 75.425781 173.394531 74.445312 C 174.664062 78.242188 175.203125 82.570312 173.140625 86.015625 C 170.261719 90.820312 167.191406 93.515625 159.015625 94.140625 C 158.785156 94.15625 158.5625 94.167969 158.339844 94.167969 " fill-opacity="1" fill-rule="nonzero"/><path fill="#ce8b63" d="M 158.1875 92.578125 C 158.253906 92.574219 158.324219 92.570312 158.390625 92.566406 C 158.324219 92.570312 158.253906 92.574219 158.1875 92.578125 M 155.355469 92.222656 C 155.355469 92.222656 155.355469 92.222656 155.351562 92.222656 C 155.355469 92.222656 155.355469 92.222656 155.355469 92.222656 M 155.34375 92.21875 C 152.890625 91.472656 151.070312 89.707031 149.867188 87.976562 C 149.867188 87.972656 149.863281 87.96875 149.863281 87.960938 C 151.0625 89.695312 152.882812 91.472656 155.34375 92.21875 M 172.664062 84.429688 C 173.914062 82.339844 174.210938 79.925781 173.964844 77.5 C 174.210938 79.925781 173.914062 82.34375 172.664062 84.429688 M 173.960938 77.496094 C 173.960938 77.492188 173.960938 77.484375 173.960938 77.480469 C 173.960938 77.484375 173.960938 77.488281 173.960938 77.496094 M 173.960938 77.472656 C 173.960938 77.46875 173.960938 77.464844 173.960938 77.460938 C 173.960938 77.464844 173.960938 77.46875 173.960938 77.472656 M 173.960938 77.457031 C 173.960938 77.453125 173.960938 77.449219 173.960938 77.445312 C 173.960938 77.449219 173.960938 77.453125 173.960938 77.457031 M 173.957031 77.429688 C 173.957031 77.429688 173.957031 77.425781 173.957031 77.425781 C 173.957031 77.425781 173.957031 77.425781 173.957031 77.429688 " fill-opacity="1" fill-rule="nonzero"/><path fill="#f9a979" d="M 128.53125 75.222656 C 97.15625 87.492188 101.160156 101.453125 101.097656 103.257812 C 101.601562 104.988281 101.175781 119.503906 134.613281 123.65625 C 142.949219 124.691406 152.835938 127.425781 160.257812 126.085938 C 181.78125 122.195312 186.933594 113.082031 184.425781 92.820312 C 181.847656 72.566406 174.601562 65.011719 152.785156 66.546875 C 145.261719 67.078125 136.355469 72.164062 128.53125 75.222656 " fill-opacity="1" fill-rule="nonzero"/><path fill="#e59c6f" d="M 123.035156 100.570312 C 123.53125 100.511719 123.980469 100.832031 124.039062 101.296875 C 124.097656 101.761719 123.742188 102.183594 123.246094 102.25 C 122.75 102.308594 122.296875 101.984375 122.238281 101.523438 C 122.183594 101.058594 122.539062 100.632812 123.035156 100.570312 " fill-opacity="1" fill-rule="nonzero"/><path fill="#e59c6f" d="M 120.578125 81.015625 C 121.074219 80.953125 121.527344 81.277344 121.585938 81.738281 C 121.644531 82.203125 121.285156 82.628906 120.789062 82.691406 C 120.292969 82.753906 119.84375 82.429688 119.785156 81.964844 C 119.726562 81.503906 120.082031 81.078125 120.578125 81.015625 " fill-opacity="1" fill-rule="nonzero"/><path fill="#f9a979" d="M 85.871094 43.84375 C 108.484375 51.324219 120.800781 75.519531 113.386719 97.882812 C 105.96875 120.242188 81.625 132.304688 59.011719 124.824219 C 36.398438 117.339844 24.082031 93.148438 31.496094 70.785156 C 38.914062 48.425781 63.257812 36.359375 85.871094 43.84375 " fill-opacity="1" fill-rule="nonzero"/><path fill="#351f17" d="M 81.792969 67.117188 C 84.070312 67.871094 85.449219 69.890625 84.875 71.625 C 84.300781 73.359375 81.988281 74.15625 79.710938 73.402344 C 77.433594 72.648438 76.054688 70.632812 76.628906 68.898438 C 77.203125 67.164062 79.515625 66.363281 81.792969 67.117188 " fill-opacity="1" fill-rule="nonzero"/><path fill="#351f17" d="M 71.738281 97.4375 C 74.015625 98.191406 75.394531 100.207031 74.816406 101.941406 C 74.242188 103.679688 71.933594 104.476562 69.65625 103.71875 C 67.378906 102.96875 66 100.949219 66.574219 99.214844 C 67.148438 97.480469 69.460938 96.683594 71.738281 97.4375 " fill-opacity="1" fill-rule="nonzero"/><path fill="#f7916f" d="M 81.597656 102.359375 C 84.066406 103.175781 85.125 106.675781 83.957031 110.183594 C 82.796875 113.6875 79.855469 115.871094 77.386719 115.054688 C 74.921875 114.238281 73.867188 110.734375 75.027344 107.226562 C 76.191406 103.722656 79.132812 101.542969 81.597656 102.359375 " fill-opacity="1" fill-rule="nonzero"/><path fill="#f7916f" d="M 94.769531 62.640625 C 97.238281 63.457031 98.296875 66.960938 97.132812 70.464844 C 95.96875 73.96875 93.027344 76.152344 90.5625 75.335938 C 88.09375 74.519531 87.039062 71.015625 88.203125 67.507812 C 89.363281 64.003906 92.304688 61.824219 94.769531 62.640625 " fill-opacity="1" fill-rule="nonzero"/><path fill="#f7916f" d="M 90.222656 101.324219 C 94.46875 100.648438 98.207031 97.703125 99.652344 93.335938 C 100.0625 92.101562 100.257812 90.847656 100.257812 89.609375 C 100.257812 86.488281 99.011719 83.507812 96.863281 81.304688 C 96.59375 81.03125 96.152344 81.027344 95.878906 81.292969 C 95.605469 81.558594 95.597656 82 95.867188 82.273438 C 97.769531 84.222656 98.867188 86.859375 98.867188 89.609375 C 98.867188 90.699219 98.695312 91.808594 98.332031 92.902344 C 97.054688 96.753906 93.757812 99.355469 90.003906 99.953125 C 89.621094 100.015625 89.367188 100.371094 89.425781 100.75 C 89.488281 101.128906 89.84375 101.386719 90.222656 101.324219 " fill-opacity="1" fill-rule="nonzero"/><path fill="#f9a979" d="M 90.800781 39.964844 C 93.539062 40.871094 95.027344 43.824219 94.117188 46.5625 C 93.210938 49.300781 90.253906 50.785156 87.511719 49.878906 C 84.773438 48.972656 83.285156 46.015625 84.195312 43.277344 C 85.101562 40.542969 88.058594 39.058594 90.800781 39.964844 " fill-opacity="1" fill-rule="nonzero"/><path fill="#f7916f" d="M 87.644531 41.109375 C 87.371094 41.230469 87.152344 41.46875 86.945312 41.785156 C 86.339844 42.714844 85.875 44.351562 85.871094 45.699219 C 85.871094 46.25 85.949219 46.75 86.152344 47.152344 C 86.253906 47.347656 86.390625 47.523438 86.570312 47.648438 C 86.75 47.773438 86.964844 47.847656 87.207031 47.855469 L 87.277344 47.855469 C 87.621094 47.859375 87.921875 47.746094 88.164062 47.570312 C 88.53125 47.300781 88.78125 46.902344 88.972656 46.492188 C 89.167969 46.082031 89.304688 45.648438 89.421875 45.308594 C 89.523438 45.015625 89.632812 44.871094 89.777344 44.765625 C 89.921875 44.667969 90.132812 44.601562 90.445312 44.554688 C 90.585938 44.53125 90.734375 44.519531 90.875 44.519531 C 91.15625 44.519531 91.414062 44.570312 91.59375 44.683594 C 91.769531 44.792969 91.882812 44.941406 91.921875 45.238281 L 91.925781 45.316406 C 91.925781 45.570312 91.792969 45.871094 91.578125 46.136719 C 91.367188 46.402344 91.082031 46.621094 90.832031 46.730469 L 90.710938 46.785156 L 90.695312 46.917969 L 90.695312 46.980469 C 90.691406 47.09375 90.730469 47.199219 90.785156 47.277344 C 90.863281 47.390625 90.953125 47.441406 90.996094 47.480469 C 91.042969 47.523438 91.035156 47.523438 91.039062 47.523438 L 91.496094 47.453125 C 91.480469 47.34375 91.421875 47.253906 91.367188 47.195312 C 91.285156 47.109375 91.214844 47.066406 91.183594 47.039062 L 91.160156 46.980469 L 91.160156 46.964844 L 90.929688 46.941406 L 91.023438 47.152344 C 91.351562 47.003906 91.679688 46.746094 91.9375 46.429688 C 92.195312 46.109375 92.386719 45.726562 92.386719 45.316406 C 92.386719 45.273438 92.386719 45.230469 92.378906 45.1875 C 92.339844 44.773438 92.125 44.457031 91.835938 44.285156 C 91.546875 44.113281 91.210938 44.058594 90.875 44.058594 C 90.707031 44.058594 90.535156 44.070312 90.375 44.097656 C 90.039062 44.148438 89.753906 44.222656 89.511719 44.390625 C 89.269531 44.558594 89.101562 44.816406 88.984375 45.15625 C 88.824219 45.621094 88.640625 46.207031 88.363281 46.652344 C 88.226562 46.878906 88.070312 47.066406 87.894531 47.191406 C 87.714844 47.320312 87.523438 47.394531 87.277344 47.394531 L 87.226562 47.394531 C 87.0625 47.386719 86.941406 47.339844 86.835938 47.265625 C 86.679688 47.160156 86.550781 46.964844 86.464844 46.691406 C 86.378906 46.421875 86.335938 46.078125 86.335938 45.699219 C 86.335938 44.875 86.535156 43.882812 86.835938 43.074219 C 86.984375 42.667969 87.15625 42.308594 87.335938 42.035156 C 87.507812 41.761719 87.695312 41.585938 87.828125 41.535156 L 87.644531 41.109375 " fill-opacity="1" fill-rule="nonzero"/><path fill="#f9a979" d="M 59.585938 130.515625 C 62.324219 131.421875 65.28125 129.9375 66.191406 127.199219 C 67.097656 124.460938 65.613281 121.507812 62.871094 120.601562 C 60.132812 119.695312 57.175781 121.175781 56.265625 123.914062 C 55.359375 126.652344 56.84375 129.605469 59.585938 130.515625 " fill-opacity="1" fill-rule="nonzero"/><path fill="#f7916f" d="M 58.140625 127.480469 C 58.078125 127.382812 58.035156 127.191406 58.035156 126.945312 C 58.035156 126.203125 58.40625 124.992188 58.949219 124.007812 C 59.222656 123.511719 59.535156 123.070312 59.855469 122.761719 C 60.175781 122.449219 60.492188 122.289062 60.753906 122.289062 C 60.886719 122.292969 61.015625 122.328125 61.15625 122.421875 C 61.34375 122.546875 61.457031 122.695312 61.53125 122.867188 C 61.605469 123.039062 61.640625 123.242188 61.640625 123.460938 C 61.644531 124.035156 61.40625 124.726562 61.230469 125.265625 C 61.167969 125.460938 61.132812 125.640625 61.132812 125.816406 C 61.132812 126.035156 61.191406 126.238281 61.296875 126.421875 C 61.398438 126.605469 61.542969 126.769531 61.714844 126.945312 C 62.078125 127.308594 62.554688 127.660156 63.109375 127.667969 C 63.410156 127.671875 63.722656 127.539062 63.976562 127.265625 C 64.261719 126.953125 64.359375 126.527344 64.363281 126.109375 C 64.359375 125.664062 64.25 125.21875 64.058594 124.878906 L 63.859375 124.992188 L 64.058594 125.113281 L 64.089844 125.078125 C 64.097656 125.070312 64.152344 125.0625 64.246094 125.0625 C 64.292969 125.0625 64.351562 125.058594 64.417969 125.039062 C 64.484375 125.019531 64.558594 124.980469 64.617188 124.921875 L 64.292969 124.59375 L 64.277344 124.597656 C 64.246094 124.605469 64.160156 124.597656 64.035156 124.613281 C 63.976562 124.625 63.90625 124.644531 63.835938 124.6875 C 63.765625 124.730469 63.707031 124.792969 63.660156 124.871094 L 63.589844 124.988281 L 63.65625 125.105469 C 63.800781 125.359375 63.902344 125.746094 63.898438 126.109375 C 63.902344 126.453125 63.808594 126.765625 63.632812 126.953125 C 63.453125 127.144531 63.285156 127.203125 63.109375 127.207031 C 62.78125 127.214844 62.363281 126.945312 62.042969 126.621094 C 61.882812 126.457031 61.769531 126.320312 61.699219 126.195312 C 61.628906 126.066406 61.597656 125.957031 61.597656 125.816406 C 61.597656 125.703125 61.621094 125.570312 61.671875 125.40625 C 61.84375 124.875 62.101562 124.15625 62.105469 123.460938 C 62.105469 123.195312 62.066406 122.929688 61.957031 122.683594 C 61.851562 122.4375 61.671875 122.210938 61.417969 122.039062 C 61.210938 121.898438 60.980469 121.828125 60.753906 121.828125 C 60.304688 121.832031 59.898438 122.078125 59.535156 122.425781 C 58.984375 122.960938 58.503906 123.765625 58.148438 124.597656 C 57.796875 125.429688 57.574219 126.285156 57.574219 126.945312 C 57.574219 127.238281 57.617188 127.5 57.738281 127.714844 L 58.140625 127.480469 " fill-opacity="1" fill-rule="nonzero"/><g clip-path="url(#7c9617cb48)"><path fill="#845333" d="M 25.246094 67.457031 C 25.246094 67.457031 25.191406 67.636719 25.085938 67.984375 C 25.042969 68.332031 24.984375 68.839844 25.121094 69.476562 C 25.242188 70.105469 25.519531 70.839844 25.960938 71.613281 C 26.40625 72.378906 27.019531 73.195312 27.816406 73.882812 C 28.207031 74.222656 28.664062 74.535156 29.121094 74.691406 C 29.351562 74.773438 29.703125 74.898438 29.972656 74.976562 C 30.253906 75.066406 30.539062 75.140625 30.820312 75.191406 C 31.382812 75.292969 31.894531 75.28125 32.339844 75.101562 C 32.78125 74.917969 33.1875 74.570312 33.652344 74.0625 C 34.460938 73.1875 35.113281 71.886719 35.1875 70.773438 L 35.195312 70.632812 C 35.203125 70.578125 35.203125 70.539062 35.191406 70.535156 L 35.164062 70.453125 C 35.183594 70.398438 35.101562 70.335938 35.101562 70.265625 C 35.007812 70.175781 34.957031 70.058594 34.757812 70 C 34.414062 69.832031 33.789062 69.867188 33.277344 70.042969 C 32.746094 70.203125 32.253906 70.519531 32.03125 70.894531 C 32.007812 70.941406 31.980469 70.984375 31.949219 71.03125 L 31.929688 71.066406 L 31.9375 71.039062 L 31.933594 71.054688 L 31.917969 71.089844 L 31.863281 71.222656 C 31.796875 71.390625 31.707031 71.59375 31.679688 71.710938 C 31.597656 71.96875 31.515625 72.277344 31.5 72.550781 C 31.449219 73.113281 31.546875 73.597656 31.820312 74.042969 C 32.082031 74.492188 32.539062 74.886719 33.066406 75.210938 C 33.328125 75.378906 33.609375 75.527344 33.898438 75.660156 L 34.117188 75.757812 L 34.199219 75.796875 L 34.324219 75.84375 L 34.808594 76.039062 C 35.441406 76.289062 35.980469 76.445312 36.578125 76.570312 C 37.742188 76.792969 38.839844 76.707031 39.761719 76.265625 C 40.660156 75.828125 41.464844 75.140625 41.960938 74.476562 C 42.246094 74.144531 42.40625 73.773438 42.59375 73.441406 C 42.710938 73.089844 42.867188 72.761719 42.882812 72.445312 C 42.902344 72.289062 42.933594 72.136719 42.945312 71.996094 C 42.9375 71.855469 42.929688 71.71875 42.925781 71.597656 C 42.917969 71.46875 42.914062 71.351562 42.910156 71.246094 C 42.878906 71.140625 42.855469 71.046875 42.832031 70.960938 C 42.734375 70.617188 42.683594 70.433594 42.683594 70.433594 C 42.683594 70.433594 42.773438 70.601562 42.941406 70.921875 C 42.984375 71.003906 43.03125 71.097656 43.085938 71.195312 C 43.113281 71.304688 43.144531 71.421875 43.179688 71.554688 C 43.214844 71.6875 43.25 71.828125 43.289062 71.980469 C 43.308594 72.128906 43.304688 72.296875 43.3125 72.472656 C 43.351562 72.835938 43.257812 73.210938 43.191406 73.644531 C 43.0625 74.046875 42.917969 74.5 42.660156 74.925781 C 42.160156 75.828125 41.445312 76.667969 40.351562 77.363281 C 40.066406 77.507812 39.777344 77.675781 39.46875 77.808594 C 39.148438 77.902344 38.820312 78.019531 38.480469 78.101562 C 38.140625 78.144531 37.78125 78.207031 37.425781 78.214844 C 37.078125 78.203125 36.703125 78.222656 36.351562 78.171875 C 35.652344 78.097656 34.878906 77.925781 34.210938 77.722656 L 33.714844 77.570312 L 33.589844 77.53125 L 33.429688 77.46875 L 33.164062 77.367188 C 32.808594 77.222656 32.453125 77.058594 32.097656 76.863281 C 31.394531 76.46875 30.667969 75.945312 30.128906 75.148438 C 29.847656 74.761719 29.65625 74.296875 29.519531 73.824219 C 29.417969 73.347656 29.363281 72.851562 29.410156 72.386719 C 29.441406 71.910156 29.539062 71.484375 29.679688 71.019531 C 29.75 70.769531 29.820312 70.628906 29.886719 70.441406 L 29.9375 70.3125 L 29.980469 70.203125 L 30.027344 70.113281 L 30.226562 69.753906 C 30.808594 68.820312 31.703125 68.28125 32.609375 67.976562 C 33.070312 67.820312 33.554688 67.753906 34.054688 67.746094 C 34.300781 67.730469 34.566406 67.777344 34.816406 67.800781 C 35.082031 67.878906 35.339844 67.910156 35.605469 68.046875 C 36.132812 68.242188 36.632812 68.707031 36.949219 69.242188 C 37.0625 69.53125 37.214844 69.789062 37.242188 70.121094 C 37.265625 70.28125 37.277344 70.441406 37.289062 70.601562 C 37.296875 70.691406 37.292969 70.742188 37.289062 70.78125 L 37.277344 70.925781 C 37.203125 71.886719 36.882812 72.683594 36.488281 73.429688 C 36.082031 74.179688 35.601562 74.804688 35.003906 75.410156 C 34.851562 75.574219 34.714844 75.695312 34.582031 75.804688 L 34.378906 75.980469 C 34.253906 76.089844 34.191406 76.117188 34.089844 76.1875 C 33.90625 76.308594 33.734375 76.4375 33.539062 76.535156 L 32.914062 76.785156 C 32.042969 77.050781 31.164062 76.957031 30.453125 76.761719 C 30.09375 76.667969 29.761719 76.546875 29.445312 76.417969 C 29.113281 76.285156 28.878906 76.183594 28.542969 76.015625 C 27.863281 75.679688 27.375 75.226562 26.953125 74.769531 C 26.101562 73.863281 25.574219 72.875 25.214844 71.96875 C 24.851562 71.0625 24.703125 70.210938 24.691406 69.515625 C 24.65625 68.816406 24.859375 68.277344 24.980469 67.9375 C 25.152344 67.621094 25.246094 67.457031 25.246094 67.457031 " fill-opacity="1" fill-rule="nonzero"/></g><path fill="#d28e65" d="M 113.386719 97.882812 C 111.652344 103.105469 108.984375 107.761719 105.640625 111.746094 L 105.683594 111.714844 C 109.097656 108.710938 112.367188 103.234375 114.066406 98.109375 C 115.925781 92.511719 116.492188 86.058594 115.476562 82.191406 L 115.457031 82.128906 C 115.761719 87.324219 115.121094 92.652344 113.386719 97.882812 " fill-opacity="1" fill-rule="nonzero"/><path fill="#f9a979" d="M 95.296875 48.273438 C 92.808594 46.605469 90.046875 45.226562 86.960938 44.203125 C 86.777344 44.144531 86.59375 44.09375 86.410156 44.039062 C 89.589844 45.132812 92.5625 46.5625 95.296875 48.273438 " fill-opacity="1" fill-rule="nonzero"/><path fill="#59c8cf" d="M 159.726562 127.445312 C 152.796875 127.445312 143.988281 125.1875 143.902344 125.167969 C 143.832031 125.148438 143.777344 125.101562 143.75 125.039062 C 143.71875 124.976562 143.71875 124.902344 143.75 124.839844 C 147.101562 118.035156 149.273438 108.203125 150.207031 95.617188 C 150.636719 86.554688 147.585938 76.953125 144.425781 67.894531 C 144.382812 67.777344 144.441406 67.648438 144.558594 67.601562 C 144.628906 67.574219 151.867188 64.8125 159.414062 64.8125 C 163.402344 64.8125 166.792969 65.574219 169.488281 67.070312 C 178.1875 71.914062 179.683594 75.066406 181.414062 78.714844 C 181.59375 79.097656 181.777344 79.488281 181.972656 79.886719 C 183.644531 83.273438 187.359375 92.367188 185.777344 103.671875 C 184.320312 114.035156 180.386719 118.75 177.117188 121.699219 C 173.515625 124.960938 168.347656 126.867188 161.773438 127.371094 C 161.140625 127.417969 160.453125 127.445312 159.726562 127.445312 " fill-opacity="1" fill-rule="nonzero"/><path fill="#43bcbb" d="M 159.417969 64.578125 L 159.414062 64.578125 C 151.824219 64.578125 144.546875 67.359375 144.472656 67.386719 C 144.242188 67.476562 144.121094 67.734375 144.203125 67.96875 C 147.359375 77.007812 150.402344 86.585938 149.972656 95.613281 C 149.042969 108.15625 146.878906 117.960938 143.542969 124.738281 C 143.480469 124.863281 143.480469 125.011719 143.535156 125.136719 C 143.59375 125.261719 143.707031 125.355469 143.84375 125.390625 C 143.929688 125.414062 152.769531 127.675781 159.726562 127.675781 C 160.457031 127.675781 161.152344 127.652344 161.789062 127.601562 C 168.421875 127.09375 173.628906 125.167969 177.273438 121.871094 C 180.570312 118.894531 184.542969 114.136719 186.003906 103.707031 C 187.601562 92.335938 183.863281 83.1875 182.183594 79.78125 C 181.988281 79.386719 181.800781 79 181.621094 78.617188 C 179.875 74.933594 178.367188 71.75 169.601562 66.871094 C 166.871094 65.351562 163.445312 64.578125 159.417969 64.578125 Z M 159.414062 65.042969 C 162.859375 65.042969 166.390625 65.613281 169.375 67.273438 C 178.9375 72.597656 179.738281 75.882812 181.765625 79.988281 C 183.792969 84.09375 187.050781 92.914062 185.546875 103.644531 C 184.042969 114.371094 179.789062 118.976562 176.964844 121.527344 C 174.136719 124.082031 169.464844 126.550781 161.757812 127.140625 C 161.105469 127.191406 160.425781 127.214844 159.726562 127.214844 C 152.746094 127.214844 143.957031 124.941406 143.957031 124.941406 C 148.085938 116.554688 149.75 104.875 150.4375 95.632812 C 150.878906 86.378906 147.722656 76.644531 144.640625 67.820312 C 144.640625 67.820312 151.824219 65.042969 159.414062 65.042969 " fill-opacity="1" fill-rule="nonzero"/><path fill="#329faf" d="M 148.585938 123.472656 C 148.585938 123.472656 154.898438 126.558594 162.890625 124.570312 C 174.167969 121.757812 175.851562 116.78125 180.785156 110.464844 C 179.457031 119.691406 163.925781 131.789062 148.585938 123.472656 " fill-opacity="1" fill-rule="nonzero"/><path fill="#329faf" d="M 146.488281 68.800781 C 146.488281 68.800781 155.351562 90.515625 151.9375 104.71875 C 151.9375 104.71875 158.960938 88.917969 146.488281 68.800781 " fill-opacity="1" fill-rule="nonzero"/><path fill="#f9a979" d="M 178.558594 52.421875 C 178.933594 49.167969 179.574219 48.128906 183.242188 46.433594 C 189.335938 43.617188 193.34375 45.25 195.535156 51.410156 C 197.246094 56.222656 200.914062 62.539062 196.988281 66.902344 C 195.890625 68.125 194.574219 69.976562 191.695312 70.035156 C 191.695312 70.035156 188.445312 70.023438 187.21875 65.605469 C 186.847656 64.257812 186.066406 62.679688 185.171875 61.039062 C 183.128906 57.300781 178.300781 54.6875 178.558594 52.421875 " fill-opacity="1" fill-rule="nonzero"/><path fill="#f9a979" d="M 181.980469 51.113281 C 183.027344 51.941406 183.269531 53.550781 182.519531 54.707031 C 181.773438 55.863281 181.476562 55.316406 180.429688 54.484375 L 175.707031 52.714844 C 174.660156 51.886719 174.417969 50.277344 175.167969 49.121094 C 175.914062 47.96875 177.367188 47.703125 178.414062 48.535156 L 181.980469 51.113281 " fill-opacity="1" fill-rule="nonzero"/><path fill="#f9a979" d="M 183.972656 48.722656 C 184.636719 49.652344 184.496094 51 183.660156 51.730469 C 182.828125 52.460938 182.703125 51.949219 182.039062 51.019531 L 178.652344 48.398438 C 177.988281 47.46875 178.128906 46.121094 178.964844 45.390625 C 179.800781 44.660156 181.011719 44.820312 181.671875 45.75 L 183.972656 48.722656 " fill-opacity="1" fill-rule="nonzero"/><path fill="#f9a979" d="M 186.8125 48.019531 C 187.121094 49.152344 186.546875 50.355469 185.53125 50.699219 C 184.515625 51.042969 184.566406 50.511719 184.257812 49.378906 L 181.972656 45.558594 C 181.664062 44.425781 182.238281 43.226562 183.253906 42.882812 C 184.273438 42.539062 185.34375 43.179688 185.648438 44.316406 L 186.8125 48.019531 " fill-opacity="1" fill-rule="nonzero"/><path fill="#f9a979" d="M 189.394531 47.25 C 189.410156 48.351562 188.625 49.265625 187.640625 49.285156 C 186.65625 49.308594 186.824219 48.851562 186.808594 47.746094 L 185.640625 43.6875 C 185.625 42.585938 186.414062 41.675781 187.398438 41.65625 C 188.382812 41.632812 189.191406 42.507812 189.207031 43.609375 L 189.394531 47.25 " fill-opacity="1" fill-rule="nonzero"/><path fill="#f9a979" d="M 191.5625 48.121094 C 191.191406 49.089844 190.191406 49.546875 189.328125 49.140625 C 188.464844 48.734375 188.769531 48.410156 189.144531 47.441406 L 189.546875 43.398438 C 189.917969 42.433594 190.921875 41.976562 191.78125 42.378906 C 192.644531 42.785156 193.042969 43.898438 192.667969 44.863281 L 191.5625 48.121094 " fill-opacity="1" fill-rule="nonzero"/><path fill="#f9a979" d="M 185.230469 53.507812 C 180.292969 55.589844 172.992188 60.496094 168.546875 63.632812 C 168.546875 63.632812 156.351562 70.289062 154.628906 80.886719 C 153.378906 88.605469 152.050781 94.96875 151.503906 100.144531 C 151.300781 102.074219 152.710938 109.617188 159.289062 110.929688 C 167.332031 112.535156 171.015625 110.773438 175.089844 106.925781 C 181.816406 100.570312 176.523438 85.972656 176.523438 85.972656 C 176.523438 85.972656 188.058594 68.617188 191.867188 64.785156 L 185.230469 53.507812 " fill-opacity="1" fill-rule="nonzero"/><path fill="#329faf" d="M 175.089844 106.925781 C 171.015625 110.773438 167.332031 112.535156 159.289062 110.929688 C 155.230469 110.121094 153.140625 106.9375 152.183594 104.160156 C 152.71875 107.214844 154.503906 111.625 159.320312 112.585938 C 167.359375 114.191406 171.046875 112.425781 175.121094 108.582031 C 178.039062 105.820312 178.691406 101.507812 178.5 97.507812 C 178.441406 101.003906 177.613281 104.542969 175.089844 106.925781 " fill-opacity="1" fill-rule="nonzero"/><path fill="#eea427" d="M 108.527344 65.816406 C 108.527344 65.816406 109.179688 67.773438 108.292969 68.957031 C 107.777344 69.648438 105.136719 69.882812 105.136719 69.882812 C 103.523438 70.359375 103.167969 71.882812 103.644531 73.496094 C 104.117188 75.109375 105.238281 76.199219 106.855469 75.726562 C 106.855469 75.726562 109.269531 74.480469 110.011719 74.796875 C 111.164062 75.300781 111.90625 77.316406 111.90625 77.316406 C 112.136719 78.09375 112.953125 78.539062 113.730469 78.3125 L 117.890625 77.089844 C 118.667969 76.863281 119.113281 76.046875 118.886719 75.269531 L 115.503906 63.769531 C 115.273438 62.992188 114.457031 62.542969 113.679688 62.773438 L 109.519531 63.992188 C 108.742188 64.222656 108.296875 65.035156 108.527344 65.816406 " fill-opacity="1" fill-rule="nonzero"/><path fill="#59c8cf" d="M 117.160156 59.238281 C 118.191406 58.933594 119.273438 59.523438 119.574219 60.554688 L 124.050781 75.777344 C 124.351562 76.804688 123.761719 77.886719 122.734375 78.191406 L 117.230469 79.804688 C 116.199219 80.105469 115.117188 79.515625 114.8125 78.484375 L 110.339844 63.261719 C 110.035156 62.234375 110.625 61.152344 111.65625 60.851562 L 117.160156 59.238281 " fill-opacity="1" fill-rule="nonzero"/><path fill="#43bcbb" d="M 117.160156 59.238281 L 117.226562 59.460938 C 117.386719 59.410156 117.550781 59.386719 117.710938 59.386719 C 118.449219 59.386719 119.132812 59.871094 119.351562 60.617188 L 123.828125 75.84375 C 123.875 76.003906 123.898438 76.164062 123.898438 76.324219 C 123.898438 77.0625 123.414062 77.75 122.664062 77.96875 L 117.164062 79.582031 C 117 79.628906 116.839844 79.648438 116.679688 79.648438 C 115.9375 79.648438 115.257812 79.167969 115.035156 78.421875 L 110.5625 63.199219 C 110.511719 63.035156 110.488281 62.875 110.488281 62.714844 C 110.488281 61.976562 110.972656 61.292969 111.722656 61.074219 L 117.222656 59.460938 L 117.09375 59.015625 L 111.589844 60.628906 C 110.640625 60.90625 110.027344 61.773438 110.027344 62.714844 C 110.027344 62.917969 110.054688 63.125 110.117188 63.328125 L 114.589844 78.550781 C 114.871094 79.5 115.738281 80.113281 116.679688 80.113281 C 116.882812 80.113281 117.089844 80.085938 117.292969 80.023438 L 122.796875 78.410156 C 123.746094 78.132812 124.359375 77.265625 124.359375 76.324219 C 124.359375 76.121094 124.332031 75.917969 124.273438 75.710938 L 119.796875 60.488281 C 119.515625 59.539062 118.652344 58.925781 117.710938 58.925781 C 117.503906 58.925781 117.296875 58.953125 117.09375 59.015625 L 117.160156 59.238281 " fill-opacity="1" fill-rule="nonzero"/><path fill="#ffffff" d="M 112.699219 62.171875 L 113.417969 61.960938 L 113.15625 61.066406 L 112.558594 61.242188 C 111.53125 61.542969 110.9375 62.621094 111.242188 63.652344 L 111.3125 63.894531 C 111.371094 63.109375 111.898438 62.40625 112.699219 62.171875 " fill-opacity="1" fill-rule="nonzero"/><path fill="#ffffff" d="M 147.527344 47.597656 C 149.988281 46.875 152.570312 48.28125 153.292969 50.738281 L 157.726562 65.820312 C 158.449219 68.277344 157.042969 70.855469 154.582031 71.578125 L 122.671875 80.9375 C 120.210938 81.660156 119.609375 79.671875 118.886719 77.214844 L 114.453125 62.132812 C 113.730469 59.675781 113.160156 57.675781 115.621094 56.957031 L 147.527344 47.597656 " fill-opacity="1" fill-rule="nonzero"/><path fill="#329faf" d="M 147.527344 47.597656 L 147.59375 47.816406 C 148.007812 47.695312 148.425781 47.636719 148.839844 47.636719 C 150.746094 47.636719 152.503906 48.882812 153.070312 50.804688 L 157.503906 65.886719 C 157.625 66.300781 157.683594 66.71875 157.683594 67.128906 C 157.683594 69.035156 156.4375 70.792969 154.511719 71.355469 L 122.605469 80.714844 C 122.277344 80.8125 121.988281 80.855469 121.734375 80.855469 C 121.347656 80.855469 121.050781 80.757812 120.789062 80.585938 C 120.398438 80.328125 120.089844 79.875 119.828125 79.273438 C 119.5625 78.675781 119.339844 77.941406 119.109375 77.148438 L 114.675781 62.066406 C 114.347656 60.960938 114.0625 59.957031 114.0625 59.164062 C 114.066406 58.679688 114.164062 58.285156 114.40625 57.960938 C 114.644531 57.636719 115.042969 57.367188 115.683594 57.179688 L 147.59375 47.816406 L 147.527344 47.597656 L 147.460938 47.375 L 115.554688 56.734375 C 114.847656 56.941406 114.347656 57.261719 114.035156 57.683594 C 113.71875 58.105469 113.597656 58.617188 113.601562 59.164062 C 113.601562 60.0625 113.90625 61.085938 114.230469 62.199219 L 118.664062 77.28125 C 118.976562 78.335938 119.261719 79.316406 119.707031 80.0625 C 119.929688 80.433594 120.199219 80.75 120.53125 80.972656 C 120.867188 81.195312 121.269531 81.320312 121.734375 81.320312 C 122.039062 81.320312 122.371094 81.265625 122.734375 81.160156 L 154.644531 71.800781 C 156.769531 71.175781 158.148438 69.234375 158.148438 67.128906 C 158.148438 66.675781 158.085938 66.210938 157.949219 65.753906 L 153.515625 50.671875 C 152.890625 48.550781 150.949219 47.175781 148.839844 47.175781 C 148.382812 47.175781 147.921875 47.238281 147.460938 47.375 L 147.527344 47.597656 " fill-opacity="1" fill-rule="nonzero"/><path fill="#59c8cf" d="M 114.511719 56.84375 C 115.707031 56.492188 116.714844 56.335938 117.066406 57.53125 L 123.566406 79.640625 C 123.917969 80.835938 122.996094 81.277344 121.800781 81.632812 C 120.601562 81.980469 119.585938 82.109375 119.234375 80.914062 L 112.734375 58.800781 C 112.382812 57.605469 113.316406 57.195312 114.511719 56.84375 " fill-opacity="1" fill-rule="nonzero"/><path fill="#43bcbb" d="M 114.511719 56.84375 L 114.578125 57.066406 C 115.058594 56.921875 115.5 56.820312 115.851562 56.820312 C 116.105469 56.820312 116.300781 56.871094 116.460938 56.984375 C 116.617188 57.09375 116.75 57.277344 116.84375 57.597656 L 123.347656 79.707031 C 123.390625 79.863281 123.410156 80 123.410156 80.121094 C 123.410156 80.292969 123.371094 80.429688 123.300781 80.554688 C 123.191406 80.734375 122.996094 80.898438 122.722656 81.039062 C 122.453125 81.179688 122.113281 81.296875 121.734375 81.410156 C 121.269531 81.546875 120.835938 81.640625 120.492188 81.640625 C 120.226562 81.640625 120.019531 81.589844 119.855469 81.472656 C 119.691406 81.359375 119.554688 81.175781 119.457031 80.847656 L 112.957031 58.734375 C 112.910156 58.582031 112.890625 58.445312 112.890625 58.328125 C 112.890625 58.15625 112.929688 58.023438 113.003906 57.902344 C 113.109375 57.726562 113.304688 57.570312 113.582031 57.433594 C 113.855469 57.292969 114.199219 57.179688 114.578125 57.066406 L 114.511719 56.84375 L 114.445312 56.625 C 113.929688 56.773438 113.445312 56.9375 113.070312 57.191406 C 112.882812 57.320312 112.722656 57.472656 112.605469 57.664062 C 112.492188 57.855469 112.425781 58.078125 112.425781 58.328125 C 112.425781 58.496094 112.457031 58.675781 112.511719 58.867188 L 119.011719 80.980469 C 119.128906 81.375 119.324219 81.667969 119.585938 81.855469 C 119.851562 82.039062 120.164062 82.105469 120.492188 82.105469 C 120.921875 82.105469 121.382812 81.992188 121.867188 81.855469 C 122.382812 81.699219 122.863281 81.53125 123.238281 81.269531 C 123.425781 81.136719 123.582031 80.980469 123.699219 80.789062 C 123.8125 80.59375 123.875 80.367188 123.875 80.121094 C 123.875 79.949219 123.847656 79.769531 123.789062 79.578125 L 117.289062 57.464844 C 117.175781 57.078125 116.984375 56.789062 116.726562 56.605469 C 116.472656 56.425781 116.164062 56.355469 115.851562 56.359375 C 115.414062 56.359375 114.941406 56.480469 114.445312 56.625 L 114.511719 56.84375 " fill-opacity="1" fill-rule="nonzero"/><path fill="#ffffff" d="M 103.914062 73.070312 C 103.792969 72.652344 103.601562 71.738281 103.96875 71.117188 C 104.464844 70.28125 105.933594 70.1875 106.59375 70.042969 C 107.257812 69.898438 107.761719 69.785156 108.082031 69.558594 C 108.082031 69.558594 107.859375 70.394531 106.484375 70.75 C 105.109375 71.101562 104.871094 71.34375 104.632812 71.703125 C 104.546875 71.832031 104.558594 72.390625 104.644531 72.882812 C 104.695312 73.164062 104.050781 73.523438 103.914062 73.070312 " fill-opacity="1" fill-rule="nonzero"/><path fill="#ffffff" d="M 108.980469 67.945312 C 108.980469 67.945312 108.996094 66.515625 108.925781 65.621094 C 108.828125 64.4375 110.25 64.175781 110.25 64.175781 C 110.25 64.175781 109.351562 64.753906 109.328125 65.832031 C 109.304688 66.90625 109.371094 67.484375 108.980469 67.945312 " fill-opacity="1" fill-rule="nonzero"/><path fill="#ffffff" d="M 114.5625 59.132812 L 117.109375 58.386719 L 116.84375 57.488281 L 114.394531 58.210938 C 113.582031 58.449219 113.367188 59.417969 113.667969 60.445312 L 113.742188 60.691406 C 113.742188 59.925781 113.929688 59.320312 114.5625 59.132812 " fill-opacity="1" fill-rule="nonzero"/><path fill="#d28e65" d="M 136.496094 69.574219 C 136.496094 69.574219 136.601562 72.464844 135.078125 78.226562 C 134.457031 80.589844 133.511719 83.339844 132.25 86.71875 C 127.90625 98.34375 122.171875 106.839844 122.171875 106.839844 C 122.171875 106.839844 119.382812 111.902344 120.046875 114.101562 C 120.046875 114.101562 118.628906 112.03125 122.976562 104.941406 C 127.328125 97.855469 131.996094 87.445312 133.570312 81.40625 C 135.144531 75.367188 136.496094 69.574219 136.496094 69.574219 " fill-opacity="1" fill-rule="nonzero"/><path fill="#e59c6f" d="M 136.789062 117.632812 L 136.777344 117.636719 L 136.789062 117.632812 " fill-opacity="1" fill-rule="nonzero"/><path fill="#d28e65" d="M 143.328125 65.09375 C 143.328125 65.09375 143.605469 66.574219 143.445312 67.777344 L 143.386719 68.496094 C 143.386719 68.496094 143.324219 68.734375 143.53125 68.855469 C 143.53125 68.855469 143.734375 69.222656 143.828125 69.566406 C 145.128906 75.808594 143.925781 86.566406 143.925781 86.566406 C 140.207031 115.929688 137 117.558594 136.789062 117.632812 C 139.382812 117.042969 142.046875 107.269531 144.074219 90.953125 C 145.347656 80.707031 144.886719 74.722656 144.367188 71.6875 C 144.132812 69.625 143.804688 68.878906 143.597656 68.644531 C 143.460938 68.488281 143.691406 68.070312 143.644531 66.722656 C 143.59375 65.378906 143.328125 65.09375 143.328125 65.09375 " fill-opacity="1" fill-rule="nonzero"/><path fill="#f9a979" d="M 123.996094 103.960938 C 123.996094 103.960938 136.089844 83.164062 136.496094 69.574219 C 136.496094 69.574219 134.664062 66.558594 133.71875 65.941406 C 132.925781 65.421875 139.789062 61.003906 141.722656 62.492188 C 144.398438 64.542969 143.175781 68.523438 143.421875 68.734375 C 145.40625 70.4375 144.816406 90.339844 139.820312 110.769531 C 135.421875 128.746094 121.03125 117.390625 120.046875 114.101562 C 119.058594 110.8125 123.996094 103.960938 123.996094 103.960938 " fill-opacity="1" fill-rule="nonzero"/><path fill="#f9a979" d="M 132.878906 62.75 C 134.171875 62.933594 135.464844 64.023438 135.769531 65.183594 C 136.078125 66.34375 135.492188 66.0625 134.203125 65.875 L 129.769531 66.5 C 128.480469 66.3125 127.183594 65.222656 126.878906 64.066406 C 126.574219 62.90625 127.371094 62.117188 128.660156 62.304688 L 132.878906 62.75 " fill-opacity="1" fill-rule="nonzero"/><path fill="#f9a979" d="M 132.566406 59.171875 C 133.777344 60.023438 134.261719 60.886719 133.726562 61.699219 C 133.191406 62.507812 132.097656 62.1875 130.882812 61.339844 L 125.667969 58.203125 C 124.457031 57.355469 123.90625 56.007812 124.445312 55.199219 C 124.980469 54.386719 126.398438 54.421875 127.609375 55.269531 L 132.566406 59.171875 " fill-opacity="1" fill-rule="nonzero"/><path fill="#f9a979" d="M 134.976562 57.796875 C 135.75 58.898438 135.789062 59.71875 134.835938 60.082031 C 133.890625 60.449219 132.960938 59.777344 132.1875 58.675781 L 128.601562 54.316406 C 127.828125 53.214844 127.972656 52.027344 128.921875 51.660156 C 129.871094 51.292969 131.269531 51.890625 132.042969 52.988281 L 134.976562 57.796875 " fill-opacity="1" fill-rule="nonzero"/><path fill="#f9a979" d="M 138.644531 59.246094 C 138.75 60.273438 138.3125 60.769531 137.183594 60.503906 C 136.058594 60.238281 135.558594 59.382812 135.457031 58.359375 L 134.535156 54.023438 C 134.433594 52.996094 135.261719 52.378906 136.390625 52.644531 C 137.515625 52.910156 138.511719 53.957031 138.617188 54.984375 L 138.644531 59.246094 " fill-opacity="1" fill-rule="nonzero"/><path fill="#f9a979" d="M 141.96875 61.984375 C 141.703125 62.871094 141.054688 63.140625 139.957031 62.554688 C 138.855469 61.972656 138.640625 61.101562 138.910156 60.21875 L 139.527344 56.328125 C 139.792969 55.441406 140.902344 55.195312 142 55.777344 C 143.101562 56.363281 143.777344 57.554688 143.507812 58.4375 L 141.96875 61.984375 " fill-opacity="1" fill-rule="nonzero"/><path fill="#f9a979" d="M 135.84375 58.066406 C 132.875 57.15625 130.5625 58.417969 130.675781 60.882812 C 130.789062 63.347656 133.285156 66.085938 136.253906 66.996094 C 138.167969 67.585938 143.511719 67.507812 143.085938 65.699219 C 142.066406 61.359375 138.914062 59.78125 138.914062 59.78125 C 138.027344 59.023438 136.972656 58.414062 135.84375 58.066406 " fill-opacity="1" fill-rule="nonzero"/></svg>