<svg xmlns="http://www.w3.org/2000/svg" xmlns:xlink="http://www.w3.org/1999/xlink" width="1080" zoomAndPan="magnify" viewBox="0 0 810 809.999993" height="1080" preserveAspectRatio="xMidYMid meet" version="1.0"><defs><filter x="0%" y="0%" width="100%" height="100%" id="b561950e0e"><feColorMatrix values="0 0 0 0 1 0 0 0 0 1 0 0 0 0 1 0 0 0 1 0" color-interpolation-filters="sRGB"/></filter><mask id="efa7f2a39e"><g filter="url(#b561950e0e)"><rect x="-81" width="972" fill="#000000" y="-80.999999" height="971.999992" fill-opacity="0.42"/></g></mask><clipPath id="c83febc3a2"><path d="M 0.0390625 1 L 126 1 L 126 200.558594 L 0.0390625 200.558594 Z M 0.0390625 1 " clip-rule="nonzero"/></clipPath><clipPath id="d38f90eb61"><rect x="0" width="127" y="0" height="201"/></clipPath></defs><path fill="#004aad" d="M 186.578125 327.550781 C 165.058594 336.035156 139.550781 333.613281 120.011719 321.230469 C 113.703125 317.234375 107.59375 311.519531 106.824219 304.09375 C 106.058594 296.664062 113.785156 288.652344 120.582031 291.746094 C 105.078125 276.410156 100.433594 251.160156 109.457031 231.3125 C 110.1875 229.703125 111.136719 228.003906 112.785156 227.371094 C 114.664062 226.648438 116.761719 227.570312 118.769531 227.441406 C 122.199219 227.21875 124.640625 224.089844 126.386719 221.128906 C 133.792969 208.582031 137.320312 194.140625 143.730469 181.058594 C 150.144531 167.976562 160.804688 155.507812 175.1875 153.171875 C 195.582031 149.863281 213.953125 167.769531 234.609375 168.125 C 239.371094 153.457031 255.257812 145.632812 270.167969 141.683594 C 283.988281 138.019531 298.320312 136.28125 312.617188 136.535156 C 317.441406 136.621094 322.414062 136.96875 326.75 139.082031 C 334.339844 142.785156 338.585938 151.351562 339.394531 159.753906 C 340.207031 168.15625 338.152344 176.542969 336.113281 184.734375 C 347.082031 180.835938 361.539062 177.882812 368.488281 187.21875 C 373.144531 193.472656 371.714844 202.210938 369.792969 209.765625 C 365.515625 226.5625 358.894531 242.328125 352.183594 258.398438 C 346.261719 272.570312 332.984375 279.71875 320.183594 286.804688 C 304.769531 295.335938 287.40625 299.550781 270.28125 303.679688 C 244.847656 309.808594 210.914062 317.953125 186.578125 327.550781 Z M 186.578125 327.550781 " fill-opacity="1" fill-rule="nonzero"/><path fill="#ffb5b5" d="M 281.90625 622.8125 C 283.875 629.175781 285.375 634.976562 288.1875 641.691406 C 294.347656 656.417969 308.019531 666.398438 321.148438 675.476562 C 329.746094 681.421875 340.132812 686.777344 350.332031 689.058594 C 334.457031 693.730469 318.070312 695.835938 301.625 697.675781 C 324.054688 703.183594 347.703125 706.019531 370.773438 704.988281 C 396.703125 713.429688 423.160156 725.414062 450.425781 725.414062 C 494.492188 725.414062 540.277344 725.214844 585.21875 725.113281 C 565.832031 687.953125 553.546875 647.292969 550.597656 604.542969 C 461.707031 613.804688 371.183594 616.539062 281.90625 622.8125 Z M 281.90625 622.8125 " fill-opacity="1" fill-rule="nonzero"/><path fill="#ffffff" d="M 703.09375 587.601562 C 693.9375 548.113281 680.953125 509.628906 667.988281 471.222656 C 652.246094 424.582031 636.5 377.941406 620.757812 331.300781 C 619.015625 326.136719 617.152344 320.78125 613.292969 316.9375 C 609.398438 313.0625 603.96875 311.230469 598.746094 309.523438 C 556.070312 295.558594 513.394531 281.597656 470.714844 267.632812 C 443.320312 283.351562 415.699219 298.535156 387.511719 312.78125 C 336.882812 338.371094 286.113281 364.042969 238.917969 395.515625 C 230.199219 401.332031 221.492188 407.441406 214.765625 415.480469 C 207.789062 423.808594 203.242188 433.839844 198.15625 443.441406 C 179.910156 477.871094 154.003906 507.878906 136.707031 542.796875 C 133.855469 548.550781 131.332031 555.757812 134.992188 561.03125 C 136.898438 563.777344 140.101562 565.300781 143.253906 566.40625 C 148.621094 568.296875 156.492188 566.984375 162.109375 567.894531 C 199.976562 574.023438 236.382812 582.179688 273.378906 592.304688 C 274.207031 600.6875 277.054688 608.722656 279.875 616.664062 C 280.636719 618.800781 281.292969 620.832031 281.90625 622.8125 C 371.183594 616.539062 461.707031 613.804688 550.597656 604.542969 C 553.546875 647.289062 565.832031 687.953125 585.21875 725.113281 C 600.574219 725.078125 615.832031 725.054688 630.890625 725.054688 C 670.511719 710.800781 704.988281 676.03125 708.351562 634.058594 C 709.601562 618.457031 706.628906 602.84375 703.09375 587.601562 Z M 703.09375 587.601562 " fill-opacity="1" fill-rule="nonzero"/><path fill="#ffb5b5" d="M 155.507812 314.546875 C 173.054688 326.886719 190.707031 339.316406 205.789062 354.570312 C 214.308594 363.183594 222.332031 373.585938 222.894531 385.6875 C 230.0625 379.273438 234.015625 373.792969 240.386719 366.585938 C 265.464844 378.820312 288.613281 391.339844 315.578125 398.511719 C 314.992188 398.050781 316.167969 398.972656 315.578125 398.511719 C 317.390625 397.257812 317.882812 396.75 319.101562 394.917969 C 329.445312 379.347656 337.492188 362.253906 342.898438 344.359375 C 357.144531 340.925781 369.550781 339.847656 383.9375 342.644531 C 388.96875 335.375 393.859375 325.636719 394.648438 316.832031 C 396.699219 293.984375 400.335938 273.949219 396.207031 251.386719 C 372.46875 251.257812 348.160156 249.699219 327.414062 248.949219 C 327.414062 248.949219 326.308594 242.871094 325.273438 237.996094 C 323.769531 230.914062 318.296875 221.640625 313.332031 216.375 C 307.054688 209.710938 297.628906 205.933594 288.550781 207.121094 C 279.472656 208.304688 271.101562 214.714844 268.21875 223.40625 C 267.246094 226.332031 266.882812 229.511719 267.574219 232.515625 C 269.132812 239.277344 275.492188 243.722656 281.621094 246.976562 C 274.824219 243.816406 267.507812 247.277344 261.59375 251.882812 C 255.679688 256.488281 252.648438 264.519531 254.046875 271.886719 C 254.34375 273.441406 254.820312 275.023438 254.511719 276.574219 C 254.003906 279.15625 251.511719 280.828125 249.109375 281.890625 C 240.792969 285.570312 231.371094 285.367188 222.308594 286.101562 C 221.070312 286.203125 219.664062 286.421875 218.992188 287.464844 C 218.457031 288.292969 218.578125 289.367188 218.582031 290.355469 C 218.613281 298.144531 210.5 303.195312 203.222656 305.96875 C 188.792969 311.460938 170.945312 314.503906 155.507812 314.546875 Z M 155.507812 314.546875 " fill-opacity="1" fill-rule="nonzero"/><path fill="#ffc6c7" d="M 282.183594 397.699219 C 293.109375 403.632812 301.683594 413.824219 306.039062 429.601562 C 306.933594 432.84375 307.695312 436.238281 309.703125 438.9375 C 312.234375 442.335938 316.453125 444.148438 320.65625 444.679688 C 324.859375 445.210938 329.113281 444.605469 333.308594 444 C 332.785156 446.753906 331.664062 449.390625 330.039062 451.671875 C 331.246094 472.269531 323.273438 495.546875 306.964844 508.1875 C 291.066406 520.515625 270.480469 524.609375 250.710938 528.339844 C 238.214844 530.703125 225.71875 541.214844 213.222656 543.574219 C 201.777344 545.734375 189.203125 539.578125 179.078125 533.816406 C 174.308594 531.105469 170.578125 526.898438 167.269531 522.523438 C 150.550781 500.40625 143.933594 465.542969 156.03125 439.734375 C 174.523438 400.292969 242.40625 376.109375 282.183594 397.699219 Z M 282.183594 397.699219 " fill-opacity="1" fill-rule="nonzero"/><path fill="#5271ff" d="M 270.359375 476.683594 C 288.488281 465.066406 309.992188 460.128906 331.074219 455.75 C 333.160156 455.316406 335.363281 454.890625 337.378906 455.582031 C 341.882812 457.128906 342.882812 463.214844 341.636719 467.8125 C 340.390625 472.410156 337.707031 476.707031 337.679688 481.46875 C 337.644531 488.550781 343.703125 494.433594 350.371094 496.828125 C 357.035156 499.21875 364.304688 498.980469 371.382812 499.308594 C 386.398438 500.003906 401.289062 503.410156 415.113281 509.316406 C 425.617188 513.804688 435.527344 519.722656 446.367188 523.324219 C 463.304688 528.957031 481.792969 528.707031 498.632812 534.625 C 513.855469 539.972656 526.878906 550.050781 539.609375 559.964844 C 546.480469 565.316406 553.355469 570.667969 560.230469 576.023438 C 570.703125 584.179688 581.875 593.402344 584.679688 606.378906 C 587.46875 619.273438 581.207031 632.214844 575.128906 643.921875 C 572.597656 648.796875 570.011719 653.753906 566.136719 657.648438 C 562.878906 660.921875 558.84375 663.308594 554.734375 665.417969 C 540.773438 672.582031 525.378906 676.933594 509.734375 678.136719 C 490.039062 679.652344 470.335938 676.230469 450.875 672.824219 C 440.035156 670.925781 429.195312 669.03125 418.355469 667.132812 C 386.5 661.554688 354.644531 655.976562 322.789062 650.402344 C 308.445312 647.890625 293.601562 645.179688 281.636719 636.886719 C 267.804688 627.296875 259.71875 611.597656 252.515625 596.386719 C 233.035156 555.261719 226.5 504.78125 270.359375 476.683594 Z M 270.359375 476.683594 " fill-opacity="1" fill-rule="nonzero"/><path fill="#ffb5b5" d="M 215.074219 625.0625 C 248.132812 610.804688 281.195312 596.542969 314.253906 582.285156 C 324.410156 577.90625 336.816406 570.242188 344.921875 577.761719 C 375.558594 606.175781 410.664062 629.757812 448.546875 647.378906 C 432.835938 634.964844 421.480469 619.160156 410.058594 602.710938 C 430.820312 623.542969 455.933594 640.015625 483.304688 650.761719 C 471.566406 636.132812 459.824219 621.503906 448.085938 606.875 C 444.011719 601.800781 442.941406 596.792969 439.089844 591.546875 C 461.378906 611.320312 486.582031 627.800781 513.632812 640.292969 C 515.390625 641.105469 517.953125 641.664062 518.863281 639.953125 C 506.808594 627.523438 494.753906 615.097656 482.703125 602.671875 C 474.015625 593.714844 469.578125 583.609375 461.867188 573.800781 C 477.335938 579.375 490.261719 590.964844 506.109375 595.339844 C 515.28125 597.871094 524.960938 597.839844 534.453125 597.246094 C 504.726562 577.316406 476.875 553.996094 452.621094 527.675781 C 464.898438 526.082031 477.355469 520.5625 486.894531 512.667969 C 438.734375 513.621094 390.933594 505.339844 344.574219 492.257812 C 273.769531 513.953125 202.964844 535.648438 132.160156 557.339844 C 132.34375 573.636719 141.421875 589.191406 154.332031 599.140625 C 167.238281 609.089844 182.777344 614.910156 198.054688 620.585938 C 202.367188 622.1875 210.472656 624.984375 215.074219 625.0625 Z M 215.074219 625.0625 " fill-opacity="1" fill-rule="nonzero"/><path fill="#ffb5b5" d="M 346.828125 318.957031 C 354.476562 372.785156 367.976562 425.777344 387.011719 476.703125 C 418.890625 424.882812 454.820312 374.066406 463.941406 313.914062 C 466.222656 298.867188 466.988281 283.636719 467.75 268.433594 C 442.296875 262.304688 422.105469 255.21875 396.207031 251.386719 C 396.523438 250.710938 393.351562 252.898438 392.625 253.066406 C 391.898438 253.238281 391.417969 253.902344 391 254.519531 C 374.992188 278.230469 362.835938 295.25 346.828125 318.957031 Z M 346.828125 318.957031 " fill-opacity="1" fill-rule="nonzero"/><path fill="#004aad" d="M 313.195312 161.753906 C 305.769531 141.867188 298.855469 117.8125 311.699219 100.914062 C 316.296875 94.867188 322.945312 90.65625 329.9375 87.699219 C 345.292969 81.207031 365.777344 81.625 375.699219 95.023438 C 380.644531 101.699219 382.03125 110.308594 385.625 117.800781 C 391.050781 129.121094 401.839844 137.71875 414.082031 140.476562 C 426.328125 143.238281 439.761719 140.101562 449.519531 132.207031 C 450.65625 140.761719 443.917969 148.785156 435.929688 152.050781 C 427.9375 155.3125 418.996094 154.929688 410.375 154.496094 C 427.035156 162.617188 446.785156 164.175781 464.511719 158.765625 C 466.136719 181.320312 453.296875 204.730469 432.609375 213.851562 C 411.917969 222.976562 384.828125 215.800781 372.777344 196.664062 C 369.34375 191.210938 367.117188 185.0625 363.605469 179.660156 C 349.902344 158.59375 321.402344 154.304688 296.378906 152.011719 " fill-opacity="1" fill-rule="nonzero"/><path fill="#004aad" d="M 275.445312 382.140625 C 275.445312 382.140625 276.339844 381.550781 277.648438 380.171875 C 278.9375 378.792969 280.558594 376.535156 281.707031 373.375 C 282.886719 370.238281 283.554688 366.25 283.542969 361.8125 C 283.53125 357.371094 282.804688 352.5 281.722656 347.421875 C 279.523438 337.25 276.953125 328.117188 275.160156 321.488281 C 273.375 314.859375 272.261719 310.738281 272.261719 310.738281 C 272.261719 310.738281 273.898438 314.671875 276.285156 321.128906 C 278.644531 327.59375 281.792969 336.601562 284.03125 346.933594 C 285.136719 352.105469 285.746094 357.203125 285.535156 361.851562 C 285.324219 366.496094 284.316406 370.65625 282.796875 373.832031 C 281.3125 377.03125 279.375 379.191406 277.902344 380.4375 C 277.160156 381.058594 276.539062 381.484375 276.109375 381.746094 C 275.675781 382.003906 275.445312 382.140625 275.445312 382.140625 Z M 275.445312 382.140625 " fill-opacity="1" fill-rule="nonzero"/><path fill="#004aad" d="M 211.519531 346.660156 C 211.519531 346.660156 211.886719 346.523438 212.496094 346.230469 C 213.105469 345.941406 213.9375 345.417969 214.804688 344.640625 C 216.554688 343.101562 218.320312 340.3125 219.105469 336.925781 C 219.886719 333.492188 219.835938 330.128906 219.824219 327.671875 C 219.808594 325.226562 219.800781 323.652344 219.800781 323.652344 C 219.800781 323.652344 220.371094 325.101562 220.996094 327.53125 C 221.589844 329.933594 222.292969 333.496094 221.402344 337.460938 C 220.480469 341.464844 217.804688 344.40625 215.488281 345.605469 C 214.332031 346.222656 213.3125 346.492188 212.605469 346.578125 C 211.902344 346.671875 211.519531 346.660156 211.519531 346.660156 Z M 211.519531 346.660156 " fill-opacity="1" fill-rule="nonzero"/><path fill="#004aad" d="M 208.46875 312.609375 C 208.46875 312.609375 207.277344 313.632812 205.46875 315.320312 C 203.660156 317.011719 201.300781 319.421875 198.886719 322.230469 C 196.476562 325.046875 194.449219 327.742188 193.054688 329.789062 C 191.660156 331.832031 190.832031 333.164062 190.832031 333.164062 C 190.832031 333.164062 191.109375 331.613281 192.015625 329.234375 C 192.914062 326.859375 194.546875 323.671875 197.09375 320.695312 C 199.648438 317.722656 202.554688 315.625 204.761719 314.375 C 206.980469 313.121094 208.46875 312.609375 208.46875 312.609375 Z M 208.46875 312.609375 " fill-opacity="1" fill-rule="nonzero"/><path fill="#004aad" d="M 295.203125 249.089844 C 295.253906 249.09375 294.746094 249.1875 294.492188 248.601562 C 294.242188 248.0625 294.277344 247.261719 294.261719 246.253906 C 294.289062 244.246094 294.679688 241.222656 296.414062 237.9375 C 296.84375 237.117188 297.359375 236.289062 297.976562 235.480469 C 298.601562 234.6875 299.234375 233.839844 300.25 233.125 C 301.21875 232.378906 302.839844 232.058594 304.148438 232.605469 C 305.445312 233.117188 306.425781 234.054688 307.207031 235.09375 C 308.710938 237.171875 309.734375 239.652344 310.144531 242.378906 C 310.355469 243.738281 310.386719 245.148438 310.25 246.566406 C 310.222656 246.921875 310.164062 247.277344 310.113281 247.632812 L 309.996094 248.253906 C 309.9375 248.582031 309.847656 248.90625 309.710938 249.179688 C 309.441406 249.726562 308.933594 250.125 308.328125 250.214844 C 307.742188 250.308594 307.121094 250.089844 306.570312 249.691406 C 305.976562 249.210938 305.386719 248.730469 304.800781 248.253906 C 304.292969 247.78125 303.785156 247.308594 303.285156 246.84375 C 302.316406 245.875 301.40625 244.878906 300.566406 243.863281 C 298.890625 241.824219 297.472656 239.71875 296.253906 237.652344 C 293.832031 233.507812 292.117188 229.566406 290.761719 226.25 C 289.429688 222.941406 288.324219 220.210938 288.011719 218.179688 C 287.84375 217.171875 287.828125 216.378906 287.855469 215.847656 C 287.875 215.3125 287.921875 215.039062 287.921875 215.039062 C 287.921875 215.039062 287.914062 215.316406 287.953125 215.84375 C 287.996094 216.371094 288.101562 217.144531 288.371094 218.097656 C 288.882812 220.019531 290.234375 222.570312 291.835938 225.761719 C 293.453125 228.941406 295.414062 232.699219 297.945312 236.605469 C 299.21875 238.550781 300.65625 240.515625 302.292969 242.410156 C 303.117188 243.351562 303.988281 244.273438 304.910156 245.167969 L 306.34375 246.476562 L 307.722656 247.601562 L 307.726562 247.605469 L 307.730469 247.601562 L 307.800781 247.238281 C 307.847656 246.933594 307.902344 246.628906 307.929688 246.324219 C 308.0625 245.101562 308.0625 243.878906 307.90625 242.691406 C 307.621094 240.320312 306.773438 238.066406 305.589844 236.257812 C 305.003906 235.382812 304.257812 234.648438 303.472656 234.289062 C 302.683594 233.9375 301.894531 234.007812 301.132812 234.476562 C 300.371094 234.925781 299.6875 235.667969 299.0625 236.363281 C 298.441406 237.0625 297.902344 237.796875 297.4375 238.527344 C 295.558594 241.464844 294.875 244.320312 294.628906 246.28125 C 294.535156 247.265625 294.414062 248.050781 294.585938 248.5625 C 294.753906 249.128906 295.242188 249.097656 295.203125 249.089844 Z M 295.203125 249.089844 " fill-opacity="1" fill-rule="nonzero"/><path fill="#004aad" d="M 338.226562 354.617188 C 338.226562 354.617188 339.152344 351.5625 340.480469 346.613281 C 341.816406 341.667969 343.453125 334.804688 344.890625 327.160156 C 346.316406 319.511719 347.273438 312.523438 347.820312 307.429688 C 348.367188 302.335938 348.609375 299.152344 348.609375 299.152344 C 348.609375 299.152344 348.957031 302.328125 348.996094 307.492188 C 349.039062 312.652344 348.660156 319.820312 347.210938 327.59375 C 345.75 335.363281 343.511719 342.183594 341.605469 346.980469 C 339.699219 351.78125 338.226562 354.617188 338.226562 354.617188 Z M 338.226562 354.617188 " fill-opacity="1" fill-rule="nonzero"/><path fill="#ffffff" d="M 339.1875 162.101562 C 339.1875 162.101562 338.5625 162.105469 337.441406 162.117188 C 336.308594 162.144531 334.667969 162.019531 332.660156 161.691406 C 330.640625 161.382812 328.28125 160.738281 325.753906 159.75 C 323.25 158.714844 320.59375 157.300781 318.0625 155.4375 C 315.554688 153.542969 313.441406 151.398438 311.730469 149.292969 C 310.0625 147.152344 308.773438 145.074219 307.902344 143.230469 C 307.015625 141.398438 306.429688 139.863281 306.128906 138.769531 C 305.820312 137.691406 305.644531 137.089844 305.644531 137.089844 C 305.644531 137.089844 305.941406 137.640625 306.472656 138.628906 C 306.96875 139.628906 307.8125 141.015625 308.921875 142.644531 C 310.019531 144.285156 311.496094 146.105469 313.242188 147.996094 C 315.03125 149.851562 317.113281 151.757812 319.472656 153.542969 C 321.859375 155.296875 324.28125 156.75 326.570312 157.933594 C 328.878906 159.066406 331.046875 159.964844 332.933594 160.546875 C 334.808594 161.144531 336.378906 161.558594 337.476562 161.75 C 338.574219 161.976562 339.1875 162.101562 339.1875 162.101562 Z M 339.1875 162.101562 " fill-opacity="1" fill-rule="nonzero"/><path fill="#004aad" d="M 413.207031 155.4375 C 413.207031 155.4375 412.398438 155.398438 410.941406 155.335938 C 409.488281 155.230469 407.378906 155.078125 404.789062 154.695312 C 399.621094 153.953125 392.476562 152.371094 385.097656 149.203125 C 381.402344 147.625 378.011719 145.902344 375.046875 144.003906 C 372.09375 142.113281 369.667969 139.984375 368.015625 137.867188 C 366.335938 135.761719 365.496094 133.714844 365.128906 132.285156 C 364.941406 131.566406 364.84375 131.003906 364.8125 130.613281 C 364.765625 130.234375 364.742188 130.03125 364.742188 130.03125 C 364.742188 130.03125 364.800781 130.226562 364.914062 130.59375 C 365.007812 130.96875 365.191406 131.503906 365.476562 132.164062 C 366.042969 133.492188 367.109375 135.300781 368.90625 137.089844 C 372.421875 140.785156 378.820312 143.960938 386.019531 147.03125 C 393.214844 150.117188 400.015625 152.226562 405.019531 153.535156 C 407.519531 154.203125 409.570312 154.644531 410.992188 154.96875 C 412.414062 155.269531 413.207031 155.4375 413.207031 155.4375 Z M 413.207031 155.4375 " fill-opacity="1" fill-rule="nonzero"/><path fill="#ffffff" d="M 237.988281 168.464844 C 237.988281 168.464844 237.777344 168.574219 237.378906 168.78125 C 237 169.019531 236.449219 169.402344 235.902344 170.039062 C 234.824219 171.257812 233.707031 173.746094 234.410156 176.5625 C 235.105469 179.359375 237.78125 182.125 241.4375 183.230469 C 243.269531 183.792969 245.316406 183.992188 247.453125 183.898438 C 249.597656 183.777344 251.871094 183.542969 253.796875 182.699219 C 255.777344 181.894531 257.007812 180.351562 256.730469 178.65625 C 256.5 176.996094 254.917969 175.523438 253.332031 174.515625 C 250.003906 172.574219 246.355469 171.449219 243.433594 170.683594 C 240.449219 169.929688 237.957031 169.605469 236.230469 169.441406 C 234.503906 169.285156 233.539062 169.253906 233.539062 169.253906 C 233.539062 169.253906 234.496094 169.136719 236.246094 169.074219 C 237.992188 169.019531 240.546875 169.046875 243.667969 169.527344 C 246.800781 170.058594 250.445312 170.8125 254.359375 172.808594 C 255.3125 173.355469 256.261719 174.003906 257.109375 174.878906 C 257.9375 175.753906 258.722656 176.878906 258.960938 178.296875 C 259.226562 179.6875 258.863281 181.222656 258 182.394531 C 257.148438 183.578125 255.945312 184.332031 254.742188 184.863281 C 252.28125 185.914062 249.828125 186.082031 247.519531 186.15625 C 245.179688 186.191406 242.871094 185.878906 240.796875 185.117188 C 236.613281 183.605469 233.753906 180.132812 233.253906 176.808594 C 232.765625 173.421875 234.351562 170.925781 235.636719 169.78125 C 236.300781 169.1875 236.917969 168.875 237.332031 168.691406 C 237.761719 168.542969 237.988281 168.464844 237.988281 168.464844 Z M 237.988281 168.464844 " fill-opacity="1" fill-rule="nonzero"/><path fill="#ffffff" d="M 119.28125 288.816406 C 119.28125 288.816406 120.160156 288.660156 121.773438 288.492188 C 123.382812 288.332031 125.734375 288.191406 128.648438 288.328125 C 131.558594 288.46875 135.03125 288.921875 138.78125 289.941406 C 140.621094 290.472656 142.667969 291.003906 144.609375 292.355469 C 146.503906 293.679688 148.195312 296.167969 147.566406 299.066406 C 147.234375 300.484375 146.277344 301.609375 145.21875 302.328125 C 144.160156 303.050781 142.90625 303.4375 141.726562 303.535156 C 139.339844 303.714844 137.285156 303.050781 135.457031 302.449219 C 131.75 301.191406 128.664062 299.453125 126.285156 297.757812 C 123.898438 296.054688 122.183594 294.421875 121.074219 293.238281 C 119.964844 292.050781 119.417969 291.34375 119.417969 291.34375 C 119.417969 291.34375 120.078125 291.957031 121.328125 292.96875 C 122.578125 293.980469 124.449219 295.359375 126.921875 296.761719 C 129.386719 298.164062 132.472656 299.5625 136.046875 300.546875 C 137.835938 301.035156 139.730469 301.492188 141.5 301.289062 C 143.203125 301.121094 144.933594 300.011719 145.273438 298.511719 C 145.640625 297.003906 144.683594 295.195312 143.273438 294.179688 C 141.835938 293.085938 139.972656 292.457031 138.207031 291.847656 C 134.664062 290.660156 131.351562 289.929688 128.535156 289.503906 C 125.714844 289.078125 123.394531 288.921875 121.785156 288.863281 C 120.175781 288.832031 119.28125 288.816406 119.28125 288.816406 Z M 119.28125 288.816406 " fill-opacity="1" fill-rule="nonzero"/><path fill="#ffffff" d="M 335.320312 185.691406 C 335.320312 185.691406 335.398438 185.933594 335.546875 186.394531 C 335.707031 186.855469 335.910156 187.539062 336.140625 188.433594 C 336.597656 190.21875 337.144531 192.859375 337.269531 196.191406 C 337.40625 199.511719 337.125 203.535156 335.933594 207.824219 C 335.269531 209.949219 334.726562 212.179688 333.117188 214.417969 C 332.304688 215.492188 331.019531 216.488281 329.480469 216.75 C 327.957031 217.046875 326.425781 216.679688 325.140625 216.003906 C 323.863281 215.296875 322.78125 214.320312 322.019531 213.125 C 321.226562 211.921875 320.84375 210.511719 320.742188 209.226562 C 320.511719 206.578125 321.242188 204.175781 322.121094 202.113281 C 323.964844 198.015625 326.277344 194.785156 328.421875 192.242188 C 330.578125 189.707031 332.589844 187.925781 334.015625 186.761719 C 335.449219 185.601562 336.292969 185.03125 336.292969 185.03125 C 336.292969 185.03125 335.539062 185.71875 334.265625 187.035156 C 332.996094 188.351562 331.222656 190.320312 329.351562 192.96875 C 327.496094 195.605469 325.484375 198.957031 323.96875 202.855469 C 323.25 204.796875 322.742188 206.925781 322.988281 208.996094 C 323.109375 210.054688 323.40625 211.015625 323.972656 211.847656 C 324.527344 212.699219 325.347656 213.417969 326.25 213.921875 C 328.132812 214.945312 330.132812 214.617188 331.347656 213.015625 C 332.578125 211.449219 333.332031 209.203125 334.027344 207.246094 C 335.367188 203.238281 335.929688 199.414062 336.089844 196.1875 C 336.257812 192.957031 336.019531 190.316406 335.78125 188.503906 C 335.660156 187.597656 335.542969 186.894531 335.449219 186.417969 C 335.363281 185.941406 335.320312 185.691406 335.320312 185.691406 Z M 335.320312 185.691406 " fill-opacity="1" fill-rule="nonzero"/><path fill="#ffffff" d="M 219.257812 288.679688 C 219.257812 288.679688 219.121094 288.898438 218.71875 289.164062 C 218.320312 289.4375 217.628906 289.660156 216.746094 289.75 C 215.007812 289.910156 212.449219 290.0625 209.3125 289.460938 C 206.21875 288.867188 202.421875 287.359375 199.503906 284.039062 C 196.554688 280.855469 194.984375 275.28125 197.371094 270.425781 C 197.96875 269.246094 198.714844 268.144531 199.921875 267.285156 C 200.515625 266.867188 201.289062 266.558594 202.046875 266.496094 C 202.796875 266.425781 203.476562 266.527344 204.085938 266.679688 C 206.558594 267.269531 208.523438 268.78125 209.96875 270.367188 C 212.851562 273.636719 214.3125 277.105469 215.59375 279.941406 C 216.820312 282.820312 217.5625 285.238281 218.027344 286.914062 C 218.480469 288.59375 218.671875 289.535156 218.671875 289.535156 C 218.671875 289.535156 218.316406 288.640625 217.675781 287.035156 C 217.007812 285.4375 215.996094 283.148438 214.53125 280.453125 C 213.027344 277.804688 211.257812 274.492188 208.53125 271.746094 C 207.164062 270.402344 205.492188 269.273438 203.589844 268.882812 C 202.59375 268.675781 201.910156 268.71875 201.25 269.203125 C 200.574219 269.683594 199.9375 270.554688 199.484375 271.476562 C 198.5625 273.332031 198.332031 275.492188 198.65625 277.472656 C 198.960938 279.460938 199.863281 281.265625 201.03125 282.765625 C 203.40625 285.792969 206.714844 287.476562 209.589844 288.3125 C 212.492188 289.167969 215.011719 289.320312 216.726562 289.382812 C 217.582031 289.402344 218.253906 289.28125 218.667969 289.074219 C 219.089844 288.875 219.257812 288.679688 219.257812 288.679688 Z M 219.257812 288.679688 " fill-opacity="1" fill-rule="nonzero"/><path fill="#004aad" d="M 172.789062 467.84375 C 172.789062 467.84375 172.566406 467.816406 172.15625 467.679688 C 171.75 467.542969 171.144531 467.289062 170.5 466.757812 C 169.183594 465.765625 167.816406 463.433594 167.804688 460.410156 C 167.9375 454.558594 169.769531 446.535156 174.382812 438.867188 C 178.941406 431.175781 185.226562 425.828125 190.070312 422.753906 C 192.53125 421.230469 194.617188 420.191406 196.089844 419.554688 C 197.566406 418.945312 198.390625 418.609375 198.390625 418.609375 C 198.390625 418.609375 197.628906 419.0625 196.257812 419.882812 C 194.898438 420.710938 192.984375 421.996094 190.75 423.71875 C 186.335938 427.21875 180.753906 432.742188 176.40625 440.082031 C 172.007812 447.355469 169.691406 454.949219 168.984375 460.433594 C 168.714844 463.179688 169.652344 465.363281 170.753906 466.488281 C 171.28125 467.066406 171.820312 467.394531 172.195312 467.585938 C 172.570312 467.78125 172.789062 467.84375 172.789062 467.84375 Z M 172.789062 467.84375 " fill-opacity="1" fill-rule="nonzero"/><path fill="#004aad" d="M 287.359375 448.675781 C 287.359375 448.675781 288.15625 448.449219 289.257812 447.957031 C 290.367188 447.472656 291.71875 446.65625 293.058594 445.601562 C 294.390625 444.539062 295.5 443.414062 296.226562 442.445312 C 296.957031 441.488281 297.363281 440.761719 297.363281 440.761719 C 297.363281 440.761719 297.382812 440.976562 297.417969 441.335938 C 297.453125 441.714844 297.429688 442.261719 297.304688 442.929688 C 297.066406 444.265625 296.207031 446.117188 294.523438 447.453125 C 292.832031 448.785156 290.835938 449.195312 289.484375 449.117188 C 288.800781 449.085938 288.265625 448.980469 287.90625 448.859375 C 287.5625 448.742188 287.359375 448.675781 287.359375 448.675781 Z M 287.359375 448.675781 " fill-opacity="1" fill-rule="nonzero"/><path fill="#004aad" d="M 707.230469 609.527344 C 707.230469 609.527344 707.234375 607.925781 706.855469 604.898438 C 706.476562 601.875 705.671875 597.445312 704.328125 591.808594 C 702.980469 586.171875 701.125 579.324219 698.710938 571.453125 C 696.285156 563.589844 693.300781 554.679688 690.039062 544.835938 C 676.949219 505.472656 657.316406 451.546875 637.789062 391.273438 C 632.804688 376.253906 627.933594 361.59375 623.234375 347.433594 C 622.039062 343.890625 620.855469 340.375 619.679688 336.894531 C 618.511719 333.4375 617.316406 330.066406 615.875 326.878906 C 613.046875 320.480469 608.871094 315.03125 603.027344 311.886719 C 597.277344 308.558594 590.929688 306.59375 584.695312 305.027344 C 578.441406 303.46875 572.226562 302.289062 566.269531 300.761719 C 554.414062 297.75 543.464844 294.539062 533.625 291.140625 C 514.066406 284.050781 498.445312 277.957031 487.5625 273.886719 C 476.710938 269.757812 470.710938 267.472656 470.710938 267.472656 C 470.710938 267.472656 494.972656 275.878906 534.1875 289.460938 C 544.042969 292.632812 554.992188 295.613281 566.84375 298.410156 C 572.738281 299.820312 578.953125 300.890625 585.339844 302.386719 C 591.699219 303.886719 598.316406 305.8125 604.515625 309.296875 C 607.601562 310.976562 610.613281 313.332031 612.960938 316.15625 C 615.355469 318.976562 617.257812 322.191406 618.792969 325.535156 C 620.34375 328.882812 621.605469 332.351562 622.8125 335.824219 C 624.003906 339.28125 625.207031 342.773438 626.421875 346.292969 C 631.179688 360.464844 636.105469 375.132812 641.152344 390.160156 C 660.671875 450.417969 679.453125 504.59375 691.722656 544.292969 C 694.777344 554.21875 697.550781 563.183594 699.785156 571.136719 C 702.007812 579.085938 703.675781 586 704.867188 591.6875 C 706.050781 597.375 706.722656 601.84375 707.007812 604.882812 C 707.289062 607.925781 707.230469 609.527344 707.230469 609.527344 Z M 707.230469 609.527344 " fill-opacity="1" fill-rule="nonzero"/><path fill="#004aad" d="M 674.828125 698.597656 C 674.828125 698.597656 672.476562 700.402344 668.226562 703.664062 C 663.953125 706.890625 657.863281 711.71875 649.636719 716.78125 C 645.523438 719.296875 640.804688 721.78125 635.4375 723.808594 C 630.078125 725.871094 623.953125 727.140625 617.5625 727.65625 C 611.152344 728.210938 604.453125 728.132812 597.601562 728.203125 C 590.714844 728.316406 583.585938 728.429688 576.28125 728.546875 C 547.035156 728.832031 520.558594 728.023438 501.417969 727.113281 C 482.273438 726.199219 470.457031 725.269531 470.457031 725.269531 C 470.457031 725.269531 482.3125 725.300781 501.460938 725.34375 C 520.613281 725.367188 547.054688 725.289062 576.25 725.007812 C 583.558594 724.941406 590.691406 724.878906 597.585938 724.816406 C 604.503906 724.84375 611.109375 725.054688 617.339844 724.679688 C 623.578125 724.332031 629.390625 723.320312 634.628906 721.527344 C 639.875 719.765625 644.585938 717.539062 648.75 715.246094 C 657.082031 710.640625 663.445312 706.171875 667.902344 703.214844 C 672.359375 700.242188 674.828125 698.597656 674.828125 698.597656 Z M 674.828125 698.597656 " fill-opacity="1" fill-rule="nonzero"/><path fill="#004aad" d="M 387.011719 476.703125 C 387.011719 476.703125 388.703125 474.027344 391.757812 469.199219 C 394.804688 464.359375 399.167969 457.339844 404.378906 448.5625 C 414.800781 431.03125 428.621094 406.429688 442.042969 378.484375 C 448.742188 364.5625 453.0625 350.523438 456.308594 337.542969 C 459.523438 324.558594 461.820312 312.683594 463.882812 302.742188 C 465.964844 292.820312 467.054688 284.707031 467.109375 279.050781 C 467.175781 276.226562 467.023438 274.035156 466.925781 272.550781 C 466.777344 271.066406 466.703125 270.285156 466.703125 270.285156 C 466.703125 270.285156 466.832031 271.058594 467.082031 272.53125 C 467.277344 274.011719 467.574219 276.203125 467.675781 279.046875 C 467.960938 284.734375 467.308594 293.011719 465.664062 303.046875 C 464.042969 313.074219 462.199219 325.035156 459.285156 338.210938 C 456.355469 351.351562 452.144531 365.796875 445.335938 379.949219 C 431.808594 408.117188 417.152344 432.351562 405.925781 449.476562 C 400.316406 458.042969 395.5625 464.835938 392.234375 469.5 C 388.871094 474.136719 387.011719 476.703125 387.011719 476.703125 Z M 387.011719 476.703125 " fill-opacity="1" fill-rule="nonzero"/><g mask="url(#efa7f2a39e)"><g transform="matrix(1, 0, 0, 1, 497, 368)"><g clip-path="url(#d38f90eb61)"><g clip-path="url(#c83febc3a2)"><path fill="#ffb5b5" d="M 1.019531 80.558594 C 2.300781 99.894531 13.566406 117.15625 26.410156 131.667969 C 39.253906 146.179688 54.09375 159.042969 65.042969 175.035156 C 72.453125 185.859375 80.242188 199.449219 93.34375 200.117188 C 97.890625 200.351562 102.410156 198.828125 106.277344 196.425781 C 114.992188 191.003906 120.410156 181.367188 122.878906 171.40625 C 125.347656 161.441406 125.203125 151.042969 125.003906 140.78125 C 124.707031 125.464844 124.203125 109.625 117.613281 95.792969 C 110.566406 81 96.882812 69.253906 93.738281 53.171875 C 91.902344 43.777344 93.933594 33.839844 91.300781 24.640625 C 88.226562 13.890625 78.679688 5.492188 67.789062 2.953125 C 28.585938 -6.179688 -1.164062 47.609375 1.019531 80.558594 Z M 1.019531 80.558594 " fill-opacity="1" fill-rule="nonzero"/></g></g></g></g><path fill="#004aad" d="M 547.976562 557.539062 C 547.976562 557.539062 546.957031 555.492188 545.121094 551.808594 C 544.1875 549.96875 543.089844 547.695312 541.964844 544.984375 C 540.824219 542.285156 539.414062 539.242188 538.1875 535.753906 C 537.546875 534.015625 536.875 532.199219 536.175781 530.304688 C 535.484375 528.40625 534.90625 526.382812 534.234375 524.3125 C 532.847656 520.175781 531.726562 515.65625 530.5 510.90625 C 528.265625 501.359375 526.40625 490.699219 525.457031 479.402344 C 524.589844 468.097656 524.722656 457.277344 525.402344 447.496094 C 525.855469 442.609375 526.238281 437.96875 526.949219 433.667969 C 527.277344 431.515625 527.53125 429.425781 527.90625 427.441406 C 528.292969 425.460938 528.667969 423.558594 529.023438 421.742188 C 529.679688 418.101562 530.582031 414.871094 531.277344 412.023438 C 531.953125 409.171875 532.675781 406.75 533.304688 404.78125 C 534.527344 400.855469 535.207031 398.671875 535.207031 398.671875 C 535.207031 398.671875 534.765625 400.910156 533.96875 404.945312 C 533.542969 406.957031 533.058594 409.421875 532.636719 412.308594 C 532.195312 415.191406 531.566406 418.445312 531.1875 422.097656 C 530.960938 423.914062 530.726562 425.816406 530.480469 427.800781 C 530.242188 429.78125 530.125 431.859375 529.925781 434 C 529.476562 438.277344 529.339844 442.871094 529.09375 447.691406 C 528.835938 457.34375 528.976562 467.953125 529.824219 479.050781 C 530.761719 490.140625 532.3125 500.636719 534.113281 510.125 C 535.125 514.84375 535.996094 519.355469 537.121094 523.507812 C 537.660156 525.585938 538.105469 527.621094 538.660156 529.539062 C 539.21875 531.457031 539.753906 533.300781 540.265625 535.058594 C 541.222656 538.597656 542.363281 541.710938 543.261719 544.488281 C 544.136719 547.273438 545.011719 549.628906 545.753906 551.542969 C 547.183594 555.398438 547.976562 557.539062 547.976562 557.539062 Z M 547.976562 557.539062 " fill-opacity="1" fill-rule="nonzero"/><path fill="#004aad" d="M 577.257812 590.292969 C 577.257812 590.292969 576.917969 588.671875 576.316406 585.753906 C 575.746094 582.832031 574.820312 578.621094 573.625 573.449219 C 572.445312 568.273438 570.875 562.160156 569.027344 555.417969 C 567.128906 548.6875 564.921875 541.339844 562.402344 533.6875 C 559.84375 526.046875 557.21875 518.835938 554.714844 512.308594 C 552.164062 505.796875 549.765625 499.960938 547.617188 495.105469 C 545.484375 490.246094 543.707031 486.320312 542.414062 483.636719 C 541.15625 480.9375 540.457031 479.433594 540.457031 479.433594 C 540.457031 479.433594 541.371094 480.816406 543.011719 483.300781 C 544.664062 485.789062 546.933594 489.46875 549.574219 494.121094 C 552.230469 498.761719 555.15625 504.429688 558.121094 510.863281 C 561.035156 517.316406 563.964844 524.546875 566.5625 532.304688 C 569.121094 540.078125 571.097656 547.625 572.621094 554.539062 C 574.089844 561.46875 575.132812 567.761719 575.78125 573.070312 C 576.445312 578.378906 576.832031 582.683594 576.992188 585.667969 C 577.164062 588.640625 577.257812 590.292969 577.257812 590.292969 Z M 577.257812 590.292969 " fill-opacity="1" fill-rule="nonzero"/></svg>